# xmcd
#
# Track frame offsets:
#	150
#	9833
#	24944
#	35226
#	51086
#	67276
#	85129
#	99835
#	115360
#	131509
#	145984
#	161571
#
# Disc length: 2282 seconds
#
# Revision: 1
# Processed by: cddbd v1.5.2PL0 Copyright (c) Steve Scherf et al.
# Submitted via: audiograbber 1.83.01
#
DISCID=9c08e80c
DTITLE=KOMPROMIS - KOMPROMIS
DYEAR=1998
DGENRE=Country
TTITLE0=Pojd se smat
TTITLE1=Vzpominka
TTITLE2=Kasari
TTITLE3=Vrat se zpatky
TTITLE4=Od rana prohravam
TTITLE5=Mississippi
TTITLE6=Sobotni noc
TTITLE7=Tiche blues
TTITLE8=Hledam tatu
TTITLE9=Tirak
TTITLE10=Horoskop
TTITLE11=Kdyz muzem hrat
EXTD=
EXTT0=
EXTT1=
EXTT2=
EXTT3=
EXTT4=
EXTT5=
EXTT6=
EXTT7=
EXTT8=
EXTT9=
EXTT10=
EXTT11=
PLAYORDER=
